Coordinates
version=1
nRows=26
nColumns=24
inDegrees=yes

Units are S.I. units (second, meters, Newtons, ...)
Angles are in degrees.

endheader
time	pelvis_tilt	pelvis_list	pelvis_rotation	pelvis_tx	pelvis_ty	pelvis_tz	hip_flexion_r	hip_adduction_r	hip_rotation_r	knee_angle_r	ankle_angle_r	subtalar_angle_r	mtp_angle_r	hip_flexion_l	hip_adduction_l	hip_rotation_l	knee_angle_l	ankle_angle_l	subtalar_angle_l	mtp_angle_l	lumbar_extension	lumbar_bending	lumbar_rotation
      3.24000000	     -5.63648759	     -2.58907489	     -3.47165577	     -0.95031784	     -0.03834029	     -0.13363129	     -8.57090406	      8.18615208	      7.51146759	    -25.01443095	      3.23285738	     15.74231617	     22.81746508	     37.86491109	     -0.61296585	    -13.38141322	    -18.25667458	      9.51299221	     16.11024679	    -12.87447308	      4.36595992	      2.92516738	      6.74038292
      3.24500000	     -5.77363393	     -2.28117951	     -3.54629833	     -0.94238250	     -0.03897965	     -0.13387465	     -8.30061946	      7.64979019	      6.98633154	    -26.06411267	      2.33385745	     17.04487135	     23.75964555	     37.77614592	     -0.18915155	    -13.06740787	    -18.74436248	      8.77803276	     15.12910510	    -12.92972432	      4.69684209	      2.52251671	      6.72191706
      3.25000000	     -5.86769453	     -1.90979919	     -3.49742608	     -0.93435287	     -0.03945118	     -0.13423932	     -8.06990472	      7.03175557	      6.28589814	    -26.99514265	      0.96823298	     18.06265487	     25.55062767	     37.58276917	      0.40047971	    -12.51893195	    -19.04078388	      7.70996460	     13.95798832	    -12.64160635	      5.00084171	      2.02961780	      6.62830667
      3.25500000	     -6.02108874	     -1.51682147	     -3.52376495	     -0.92657238	     -0.03993317	     -0.13455555	     -7.64205359	      6.36760834	      5.67794032	    -28.13780639	     -0.30351915	     19.41745024	     27.06825664	     37.51510138	      0.93719092	    -12.19518672	    -19.39750528	      6.57755624	     12.83910104	    -12.45328808	      5.31249898	      1.52608161	      6.58065042
      3.26000000	     -6.17320985	     -1.04963379	     -3.49719160	     -0.91865036	     -0.04030137	     -0.13493812	     -7.18866629	      5.60223543	      4.98621297	    -29.26402151	     -1.84731791	     20.69017864	     28.79172090	     37.41179367	      1.59519371	    -11.76527459	    -19.65508459	      5.33653125	     11.58722357	    -12.24713326	      5.65651059	      0.93629158	      6.48621446
      3.26500000	     -6.30572193	     -0.51176760	     -3.48416103	     -0.91056563	     -0.04049436	     -0.13519777	     -6.75293200	      4.75671601	      4.37261572	    -30.26276449	     -3.90096483	     21.58835775	     31.45501342	     37.25196874	      2.29228966	    -11.42761324	    -19.82780392	      3.95881525	     10.36176302	    -11.48111175	      6.01229831	      0.25292471	      6.39362850
      3.27000000	     -6.52587796	      0.00668533	     -3.41028416	     -0.90274004	     -0.04084571	     -0.13563928	     -6.07356613	      3.90045694	      3.63809138	    -31.61741755	     -5.54135550	     23.11896989	     32.49103007	     37.28986050	      3.01624506	    -10.93294576	    -20.18054469	      2.78201747	      9.09863148	    -11.68498588	      6.40697389	     -0.39263184	      6.25551628
      3.27500000	     -6.70693099	      0.56292528	     -3.33340926	     -0.89485081	     -0.04106960	     -0.13606974	     -5.40857159	      2.98372819	      2.94141423	    -32.93253304	     -7.49695486	     24.44661169	     33.87647627	     37.27791990	      3.78050660	    -10.42071843	    -20.54182097	      1.66322426	      7.81055315	    -11.99320857	      6.76831791	     -1.08099192	      6.12127329
      3.28000000	     -6.84556277	      1.14163956	     -3.19974140	     -0.88684100	     -0.04118421	     -0.13646982	     -4.79511720	      2.04273932	      2.22788830	    -34.14355935	     -9.85637698	     25.36487518	     35.73866298	     37.21754845	      4.58457929	     -9.89644878	    -20.94489681	      0.71256689	      6.66768709	    -12.45024331	      7.10533131	     -1.82386712	      5.90193708
      3.28500000	     -7.03667827	      1.70229957	     -3.13283189	     -0.87900940	     -0.04136897	     -0.13684024	     -4.00926085	      1.10452946	      1.64199773	    -35.56056490	    -12.06309700	     26.47128329	     36.79627278	     37.26405168	      5.30796403	     -9.50457035	    -21.45907128	     -0.04227740	      5.64404928	    -13.10627827	      7.46051458	     -2.51639379	      5.78385395
      3.29000000	     -7.24322205	      2.26939227	     -3.11611723	     -0.87122781	     -0.04155627	     -0.13714288	     -3.12962797	      0.16383141	      1.20724014	    -37.10711194	    -14.18587829	     27.55390074	     37.16208708	     37.32486912	      5.98731920	     -9.21128624	    -21.98724933	     -0.66988164	      4.71960795	    -13.63187717	      7.82804482	     -3.19958345	      5.74257089
      3.29500000	     -7.37044686	      2.78609583	     -2.97033651	     -0.86358284	     -0.04171023	     -0.13765127	     -2.31428617	     -0.74648156	      0.61375170	    -38.64584685	    -16.40146361	     28.33639599	     37.51676344	     37.32730532	      6.69985514	     -8.84280689	    -22.57937837	     -1.11419697	      3.87357968	    -14.40516117	      8.06334266	     -3.84402869	      5.54282184
      3.30000000	     -7.51988279	      3.33177501	     -2.89588478	     -0.85589072	     -0.04182711	     -0.13801867	     -1.41936589	     -1.66327481	      0.20862899	    -40.26520918	    -18.51935783	     28.86949595	     37.33782215	     37.29280358	      7.36954776	     -8.58276459	    -23.09301855	     -1.40810751	      3.21349679	    -14.91314168	      8.34315644	     -4.50585561	      5.45360455
      3.30500000	     -7.58541868	      3.88495787	     -2.77267910	     -0.84826179	     -0.04188812	     -0.13840613	     -0.58442268	     -2.59403899	     -0.24465001	    -41.92907847	    -20.49419423	     29.08514083	     36.92277401	     37.15902772	      8.03484168	     -8.53412270	    -23.59828167	     -1.54070225	      2.82092285	    -15.13185429	      8.51293915	     -5.19845074	      5.25972331
      3.31000000	     -7.74325639	      4.35852588	     -2.57509623	     -0.84088069	     -0.04202343	     -0.13906982	      0.41328350	     -3.43634435	     -0.64927342	    -43.70181248	    -22.19887421	     29.24663428	     35.94344187	     37.10486329	      8.71283362	     -8.19965537	    -24.06160732	     -1.68525901	      2.21053006	    -15.64145502	      8.72886811	     -5.77166751	      5.01467259
      3.31500000	     -7.78424000	      4.86496397	     -2.41482555	     -0.83353531	     -0.04204074	     -0.13966723	      1.33176952	     -4.32942026	     -1.08585577	    -45.51796092	    -23.73646897	     28.87623211	     34.89305844	     36.88811401	      9.36006217	     -8.16587986	    -24.47144106	     -1.63707478	      1.90819532	    -15.78242434	      8.81565206	     -6.36870139	      4.86232213
      3.32000000	     -7.86814400	      5.36915663	     -2.14800645	     -0.82626344	     -0.04210991	     -0.14037026	      2.32202883	     -5.20856397	     -1.52424886	    -47.46618472	    -24.68624763	     28.48428437	     33.03867392	     36.68389567	     10.04716476	     -8.12450522	    -24.82527114	     -1.54706793	      1.76934186	    -15.72570453	      8.92600537	     -6.99199686	      4.50062893
      3.32500000	     -7.88479364	      5.86743772	     -1.90719315	     -0.81908152	     -0.04202600	     -0.14108362	      3.26902763	     -6.07625884	     -1.91664422	    -49.35362990	    -25.62524436	     27.55395671	     31.69664053	     36.33864586	     10.72410873	     -8.10759335	    -25.05098697	     -1.47088092	      1.64099041	    -15.39111261	      8.95001132	     -7.59228520	      4.16755235
      3.33000000	     -7.88852597	      6.35147228	     -1.63129195	     -0.81200483	     -0.04191282	     -0.14193024	      4.23388664	     -6.95279440	     -2.35490006	    -51.27071502	    -26.25105433	     26.37981878	     30.32484469	     35.94276136	     11.41647314	     -8.09225788	    -25.20464280	     -1.41179739	      1.52968137	    -14.80737581	      8.93911566	     -8.15258111	      3.86484925
      3.33500000	     -7.88002566	      6.83570314	     -1.35171266	     -0.80499526	     -0.04172115	     -0.14274947	      5.20852233	     -7.79901157	     -2.70398025	    -53.18342097	    -26.54887646	     24.96296614	     28.99069484	     35.47155555	     12.11730480	     -8.04468813	    -25.24262888	     -1.39875746	      1.41197120	    -13.98721332	      8.90520589	     -8.72590242	      3.46007317
      3.34000000	     -7.85293217	      7.29935680	     -1.05901137	     -0.79806400	     -0.04143910	     -0.14363808	      6.18473629	     -8.62870631	     -3.04660022	    -55.05279254	    -26.66607949	     23.35223051	     27.87426141	     34.93488994	     12.82158459	     -7.96373777	    -25.20130677	     -1.40610504	      1.26423037	    -13.11757340	      8.83722675	     -9.26097399	      3.05777793
      3.34500000	     -7.78492932	      7.77164289	     -0.84178808	     -0.79116028	     -0.04102520	     -0.14449630	      7.14842040	     -9.44845429	     -3.26374021	    -56.82943535	    -26.67391492	     21.53778415	     27.34084177	     34.29937309	     13.52364567	     -7.85328955	    -25.08484705	     -1.26266030	      1.08564592	    -12.73416022	      8.73831359	     -9.77100514	      2.76158160
      3.35000000	     -7.76786615	      8.14786190	     -0.48945051	     -0.78438717	     -0.04061811	     -0.14541882	      8.16706273	    -10.15558279	     -3.57609334	    -58.63614077	    -26.22755744	     19.83437021	     26.10838442	     33.69694535	     14.19113177	     -7.59343410	    -24.93705603	     -1.28487111	      0.94320898	    -11.74211949	      8.64717792	    -10.22038932	      2.25475085
      3.35500000	     -7.67062876	      8.56385224	     -0.30968940	     -0.77763302	     -0.04001366	     -0.14622425	      9.15871691	    -10.86863791	     -3.65786558	    -60.29097083	    -25.87817296	     18.00223051	     25.86104852	     32.96616592	     14.83777304	     -7.43854355	    -24.71600428	     -1.15298474	      0.70004636	    -11.47567403	      8.50092730	    -10.65613016	      1.94378036
      3.36000000	     -7.62061439	      8.86772186	     -0.00239186	     -0.77095177	     -0.03940243	     -0.14709114	     10.18275272	    -11.45346701	     -3.85235016	    -61.92212823	    -25.19742789	     16.32275140	     24.99982051	     32.24863875	     15.44027323	     -7.02795838	    -24.46153691	     -1.12889034	      0.47426596	    -10.68822335	      8.37285659	    -11.00722926	      1.47367590
      3.36500000	     -7.50626971	      9.19341742	      0.14005362	     -0.76431248	     -0.03863393	     -0.14780921	     11.20401868	    -12.01277550	     -3.82686751	    -63.41527542	    -24.61762450	     14.64819546	     24.90210762	     31.44895852	     15.98825500	     -6.78764607	    -24.17499705	     -0.97442280	      0.22259984	    -10.48271880	      8.20088604	    -11.33560938	      1.18356758
